<?xml version="1.0" standalone="no"?><!DOCTYPE svg PUBLIC "-//W3C//DTD SVG 1.1//EN" "http://www.w3.org/Graphics/SVG/1.1/DTD/svg11.dtd"><svg t="1667224562193" class="icon" viewBox="0 0 1024 1024" version="1.1" xmlns="http://www.w3.org/2000/svg" p-id="4971" xmlns:xlink="http://www.w3.org/1999/xlink" width="200" height="200"><path d="M921.588907 627.626667c-2.816 2.986667-5.546667 5.546667-7.594667 8.533333 2.048-2.986667 4.778667-5.546667 7.509333-8.533333z m39.424-82.773334c-1.365333 2.645333-3.413333 5.802667-4.778667 8.533334 2.048-2.730667 3.413333-5.888 4.778667-8.533334z m-42.154667 87.381334c-2.730667 2.986667-5.461333 5.546667-8.192 8.533333 2.730667-2.986667 5.461333-5.973333 8.192-8.533333z m62.037333-190.378667c0 2.986667-0.682667 5.546667-1.365333 8.533333 0.682667-2.986667 0.682667-5.973333 1.365333-8.533333z m0.085334-5.802667c0 2.730667-0.682667 5.888-0.682667 8.533334 0-2.645333 0-5.376 0.682667-8.533334z m-10.922667 77.312c-1.365333 2.986667-2.730667 5.546667-3.413333 8.533334a34.986667 34.986667 0 0 1 3.413333-8.533334z m-7.253333 26.282667c-1.365333 2.730667-2.730667 5.888-4.778667 8.533333 1.365333-3.072 3.413333-5.802667 4.778667-8.533333z m6.144-20.992l-4.096 8.533333 4.096-8.533333z m-19.541334 56.490667c-2.048 2.730667-4.096 5.461333-6.144 8.533333 2.048-3.072 4.096-5.802667 6.144-8.533333z m16.469334-46.08c-1.365333 3.072-2.730667 5.632-4.096 8.618666l4.096-8.533333z m-62.805334 125.44l0 0z m6.485334-8.874667c-2.730667 2.986667-5.461333 5.546667-8.192 8.533333 2.048-2.986667 5.461333-5.973333 8.192-8.533333z m71.68-215.210667c0 2.816-0.682667 5.717333-0.682667 8.533334 0-2.816 0.682667-5.717333 0.682667-8.533334z m-68.608 210.773334c-2.730667 2.986667-5.461333 5.546667-8.192 8.533333 2.730667-2.986667 5.461333-5.546667 8.192-8.533333zM981.32224 424.618667c0 3.072 0 5.546667-0.597333 8.533333 0.597333-2.474667 0.597333-5.461333 0.597333-8.533333z m-17.066667 109.824c-1.450667 2.645333-2.816 5.802667-4.181333 8.533333 1.365333-2.730667 2.730667-5.461333 4.096-8.533333zM915.615573 636.586667c-2.645333 3.072-5.376 5.546667-8.106666 8.533333 2.730667-2.986667 5.461333-5.461333 8.106666-8.533333z m-9.301333 13.312c-2.56 2.645333-5.205333 5.888-8.533333 8.533333l8.533333-8.533333z m36.096-60.074667l-6.144 8.533333 6.144-8.533333z m35.669333-120.064l-2.048 8.533333 2.048-8.533333z m-6.826666 38.144c-1.28 2.986667-1.962667 5.546667-3.413334 8.533333 1.450667-2.986667 2.133333-5.546667 3.413334-8.533333z m-31.061334 86.613333a74.24 74.24 0 0 1-6.826666 8.533334c2.048-2.304 4.778667-5.12 6.826666-8.533334z m-2.56 4.864c-2.048 2.901333-4.778667 5.717333-6.826666 8.533334a71.936 71.936 0 0 0 6.826666-8.533334z m15.786667-34.304c-2.048 2.730667-3.413333 5.888-5.376 8.533334a43.178667 43.178667 0 0 1 5.376-8.533334z m13.909333-41.301333c-1.365333 2.730667-2.730667 5.888-4.096 8.533333 1.365333-2.645333 2.730667-5.376 4.096-8.533333z m11.52-59.562667l-2.048 8.533334 2.048-8.533334z m-2.133333 16.554667a40.533333 40.533333 0 0 1-2.730667 8.533333 42.666667 42.666667 0 0 1 2.730667-8.533333zM947.188907 580.010667l-6.144 8.533333 6.144-8.533333z m28.501333-93.610667c-0.682667 2.986667-2.048 5.632-2.730667 8.533333 0.682667-2.901333 2.048-5.973333 2.730667-8.533333z m1.706667-11.093333l-2.133334 8.618666c0-2.986667 0.682667-5.546667 2.048-8.533333z m-32.597334 109.738666l-6.144 8.533334c1.365333-2.816 4.096-5.717333 6.144-8.533334z m6.485334-14.848c-2.048 2.645333-4.096 5.376-5.461334 8.533334 2.048-3.157333 3.413333-5.888 5.461334-8.533334z m23.296-78.421333c-0.597333 2.986667-1.962667 5.632-2.645334 8.533333 0.682667-2.901333 2.048-5.546667 2.645334-8.533333z m-47.36 126.634667c-2.730667 2.986667-4.778667 6.058667-7.509334 8.533333a51.712 51.712 0 0 1 7.509334-8.533333zM972.788907 502.613333c-1.365333 2.986667-2.048 5.546667-3.413334 8.533334 1.365333-2.56 2.048-5.546667 3.413334-8.533334z m-13.482667 47.274667c-1.365333 2.730667-3.413333 5.888-4.864 8.533333 1.450667-2.645333 2.816-5.802667 4.864-8.533333z m-29.184 63.744c-2.730667 2.901333-4.778667 5.717333-7.509333 8.533333 2.730667-2.816 5.461333-5.632 7.509333-8.533333z m43.776-116.48c-0.682667 3.072-2.048 5.632-3.413333 8.533333a34.986667 34.986667 0 0 0 3.413333-8.533333z m-74.154667 161.621333l-8.533333 8.533334c2.645333-3.157333 5.973333-5.888 8.533333-8.533334z m80.725334-211.285333c-0.768 2.986667-0.768 5.546667-1.365334 8.533333 0.597333-2.986667 1.365333-5.973333 1.365334-8.533333z m-55.893334 175.530667c-2.730667 2.986667-4.778667 5.973333-7.509333 8.533333 2.048-2.986667 4.778667-5.546667 7.509333-8.533333z m54.869334-164.352c-0.768 2.986667-1.365333 5.546667-1.365334 8.533333 0-2.986667 0.597333-5.546667 1.365334-8.533333z m0.597333-5.632c-0.682667 2.986667-0.682667 5.546667-1.365333 8.533333 0-2.56 0.682667-5.546667 1.365333-8.533333zM955.72224 560.042667c-2.048 2.730667-3.413333 5.888-5.546667 8.533333 1.365333-2.645333 3.413333-5.376 5.546667-8.533333z m-20.48 44.202666c-2.048 2.816-4.778667 5.717333-6.826667 8.533334 2.048-2.816 4.778667-5.717333 6.826667-8.533334z m-2.730667 4.693334c-2.048 2.901333-4.778667 5.717333-6.826666 8.533333 2.730667-2.816 4.778667-5.632 6.826666-8.533333z m25.088-53.930667a58.453333 58.453333 0 0 1-5.461333 8.533333c2.048-3.072 3.413333-5.802667 5.461333-8.533333zM570.868907 842.069333c-2.901333 0.597333-5.717333 1.962667-8.533334 2.730667 2.474667-0.768 5.290667-2.133333 8.533334-2.730667z m6.314666-1.109333c-2.901333 0.682667-5.717333 2.048-8.533333 2.730667 2.816-0.682667 5.632-1.365333 8.533333-2.730667z m6.314667-1.024c-2.901333 0.682667-5.717333 2.048-8.533333 2.730667 2.816-0.682667 5.632-2.048 8.533333-2.730667z m12.629333-2.645333c-2.901333 1.365333-5.717333 2.048-8.533333 3.413333 2.816-1.365333 5.632-2.730667 8.533333-3.413333z m6.314667-1.365334c-2.901333 1.365333-5.717333 2.133333-8.533333 3.413334 2.816-1.28 5.632-2.048 8.533333-3.413334z m-12.629333 2.816c-2.901333 0.682667-5.717333 2.048-8.533334 2.730667 2.816-0.682667 5.632-1.365333 8.533334-2.730667z m-44.970667 7.082667c-2.730667 0.682667-5.461333 1.450667-8.533333 2.048l8.533333-2.048z m129.962667-30.72c-2.730667 2.133333-5.802667 3.413333-8.533334 5.546667a57.429333 57.429333 0 0 1 8.533334-5.461334z m-116.906667 29.184l-8.533333 2.048 8.533333-2.048z m-26.368 3.328c-2.730667 0.597333-5.461333 1.365333-8.533333 1.365333 3.072-0.768 5.802667-1.365333 8.533333-1.365333z m32.853333-4.266667l-8.533333 2.048 8.533333-2.048z m-13.141333 1.706667l-8.533333 2.048 8.533333-2.048z m100.010667-22.186667a56.234667 56.234667 0 0 0-8.533334 4.864 53.504 53.504 0 0 0 8.533334-4.778666z m-5.973334 2.218667c-2.901333 1.365333-5.546667 2.730667-8.533333 4.010667l8.533333-4.010667z m11.946667-3.84c-2.986667 1.365333-5.632 3.413333-8.533333 4.778667a56.661333 56.661333 0 0 1 8.533333-4.778667zM663.028907 819.2c-2.986667 1.365333-5.632 3.413333-8.533334 4.864a52.48 52.48 0 0 0 8.533334-4.864z m5.973333-1.792c-2.816 1.365333-5.888 3.413333-8.533333 4.778667 2.645333-1.365333 5.717333-3.413333 8.533333-4.778667z m-41.898667 12.458667c-2.986667 1.365333-5.632 2.816-8.533333 4.181333 2.901333-1.365333 5.546667-2.816 8.533333-4.181333z m-6.229333 1.621333l-8.533333 4.096 8.533333-4.096z m-6.229333 1.706667z m18.432-4.864l-8.533334 4.096 8.533334-4.096z m6.058666-1.621334c-2.901333 1.450667-5.546667 2.816-8.533333 4.181334 2.986667-1.365333 5.632-2.730667 8.533333-4.181334z m-30.634666 7.936c-2.816 1.365333-5.717333 2.048-8.533334 3.413334 2.816-1.365333 5.717333-2.730667 8.533334-3.413334z m-70.314667 11.946667a299.861333 299.861333 0 0 1-8.533333 2.133333 18.432 18.432 0 0 1 8.533333-2.133333z m-13.312 1.536c-2.730667 0.682667-5.461333 0.682667-8.533333 1.365333 3.072-0.682667 5.802667-0.682667 8.533333-1.365333z m-26.624 1.962667c-2.730667 0-5.888 0.682667-8.533333 0.682666 2.645333 0 5.802667 0 8.533333-0.682666z m6.656-0.256c-2.730667 0-5.802667 0.682667-8.533333 0.682666 2.730667 0 5.802667-0.682667 8.533333-0.682666z m13.397333-1.194667c-2.730667 0.682667-5.802667 0.682667-8.533333 1.365333 2.730667-0.682667 5.802667-0.682667 8.533333-1.365333z m-6.656 0.512c-2.730667 0.682667-5.802667 0.682667-8.533333 1.365333a36.181333 36.181333 0 0 1 8.533333-1.365333z m-20.224 1.194667c-2.986667 0-5.632 0.682667-8.533333 0.682666 2.901333 0 5.546667-0.682667 8.533333-0.682666z m-6.741333 0.256c-2.730667 0-5.802667 0-8.533333 0.682666 2.730667-0.682667 5.461333-0.682667 8.533333-0.682666z m-6.826667 0.426666H469.32224h8.533333z m202.666667-37.973333c-2.730667 2.048-5.802667 3.413333-8.533333 5.461333 2.730667-2.048 5.461333-3.413333 8.533333-5.461333z m157.184-90.624c-2.56 3.072-5.546667 5.461333-8.533333 8.533333l8.533333-8.533333z m-4.352 3.669333a107.52 107.52 0 0 1-8.533333 8.533334c2.986667-2.56 5.973333-5.973333 8.533333-8.533334z m17.066667-14.762666c-2.56 3.072-5.802667 5.546667-8.533334 8.533333 2.730667-2.986667 5.973333-6.058667 8.533334-8.533333z m-4.096 3.669333c-2.56 3.072-5.802667 5.546667-8.533334 8.533333 2.730667-2.986667 5.376-5.461333 8.533334-8.533333z m-4.266667 3.669333c-2.56 3.072-5.802667 5.546667-8.533333 8.533334 2.730667-2.986667 5.376-5.461333 8.533333-8.533334z m-13.056 10.922667c-3.072 2.645333-5.546667 5.973333-8.533333 8.533333 2.986667-2.56 5.973333-5.888 8.533333-8.533333z m-4.437333 3.584c-2.986667 2.56-5.546667 5.973333-8.533334 8.533333 2.986667-3.242667 5.546667-5.973333 8.533334-8.533333z m-13.653334 10.24z m-9.301333 6.741333l-8.533333 8.192 8.533333-8.192z m13.824-10.154666c-2.816 2.645333-5.717333 5.973333-8.533333 8.533333 3.328-2.56 5.717333-5.888 8.533333-8.533333z m4.608-3.413334c-2.986667 2.56-5.973333 5.973333-8.533333 8.533334 2.986667-2.56 5.973333-5.973333 8.533333-8.533334z m-13.738667 10.24l-8.533333 8.277334 8.533333-8.277334z m75.605334-67.072c-3.072 2.901333-5.461333 5.802667-8.533334 8.533334 3.072-2.730667 5.461333-5.632 8.533334-8.533334z m-27.306667 27.818667a58.197333 58.197333 0 0 1-8.533333 8.533333c2.645333-3.072 5.376-6.144 8.533333-8.533333z m38.144-40.362667a115.2 115.2 0 0 1-8.533333 8.533334c3.072-2.645333 5.461333-5.376 8.533333-8.533334z m-14.506667 16.64a108.885333 108.885333 0 0 0-8.533333 8.533334c2.986667-2.816 5.973333-5.632 8.533333-8.533334z m10.922667-12.373333c-3.072 2.730667-5.546667 5.376-8.533333 8.533333 2.986667-3.157333 6.058667-5.802667 8.533333-8.533333z m-3.669333 4.096c-2.986667 2.730667-5.461333 5.376-8.533334 8.533333 3.072-2.56 6.144-5.802667 8.533334-8.533333z m-11.093334 12.373333l-8.533333 8.533334 8.533333-8.533334z m-11.690666 11.861334l-8.533334 8.533333 8.533334-8.533333z m-4.010667 3.925333c-2.816 3.072-5.632 6.144-8.533333 8.533333 2.901333-2.986667 5.717333-6.058667 8.533333-8.533333z m11.946667-11.861333l-8.533334 8.533333 8.533334-8.533333z m-4.096 3.925333l-8.533334 8.533333 8.533334-8.533333z m-180.309334 115.2c-2.730667 2.048-5.888 3.413333-8.533333 5.461333 3.072-2.048 5.802667-3.413333 8.533333-5.546666z m33.621334-14.165333l-8.533334 6.144 8.533334-6.144z m5.376-2.474667l-8.533334 6.144a32.768 32.768 0 0 0 8.533334-6.144z m-10.922667 5.034667l-8.533333 6.144 8.533333-6.144z m27.050667-13.056c-2.986667 2.048-5.546667 4.778667-8.533334 6.826666a49.237333 49.237333 0 0 0 8.533334-6.826666z m-10.752 5.290666a71.68 71.68 0 0 0-8.533334 6.826667c2.901333-2.048 5.717333-4.864 8.533334-6.826667z m5.461333-2.645333c-2.986667 2.048-5.973333 4.778667-8.533333 6.826667 2.986667-2.048 5.973333-4.096 8.533333-6.826667z m-44.202667 19.882667c-2.730667 2.048-5.461333 3.413333-8.533333 5.461333 3.072-2.048 5.802667-4.096 8.533333-5.461333z m204.458667-145.92c-2.56 2.730667-5.888 5.973333-8.533333 8.533333l8.533333-8.533333zM708.852907 801.706667l-8.533334 6.229333 8.533334-6.229333z m-11.349334 4.864a43.264 43.264 0 0 1-8.533333 5.546666c3.157333-2.048 5.888-3.413333 8.533333-5.546666z m5.802667-2.474667l-8.533333 6.144a24.064 24.064 0 0 1 8.533333-6.144z m73.984-37.888a83.029333 83.029333 0 0 1-8.533333 7.509333c3.157333-2.730667 5.802667-4.778667 8.533333-7.509333z m19.626667-12.8l-8.533334 8.277333 8.533334-8.277333z m-24.490667 15.786667c-2.730667 2.816-5.888 4.864-8.533333 7.594666a53.248 53.248 0 0 1 8.533333-7.594666z m9.728-5.973334a83.029333 83.029333 0 0 1-8.533333 7.509334c3.157333-2.730667 5.888-4.778667 8.533333-7.509334z m9.984-6.656l-8.533333 8.277334c2.389333-2.730667 5.632-5.546667 8.533333-8.277334z m-24.746667 15.530667c-2.730667 2.730667-5.888 4.864-8.533333 7.594667 2.645333-2.730667 5.376-4.864 8.533333-7.594667z m-10.325333 5.802667l-8.533333 7.509333c2.986667-2.730667 5.546667-5.461333 8.533333-7.509333z m-5.12 3.072c-2.986667 2.048-5.546667 4.778667-8.533333 6.826666 2.56-2.048 5.546667-4.778667 8.533333-6.826666z m-5.290667 2.730666c-2.986667 2.048-5.546667 4.778667-8.533333 6.826667 2.986667-2.048 5.973333-4.778667 8.533333-6.826667z m15.530667-8.704c-2.645333 2.730667-5.802667 4.778667-8.533333 7.509334 2.730667-2.730667 5.888-4.778667 8.533333-7.509334z" fill="#202020" p-id="4972"></path><path d="M839.75424 1021.952H184.308907A141.653333 141.653333 0 0 1 42.655573 880.554667V224.682667A141.653333 141.653333 0 0 1 184.223573 83.285333h399.786667a28.330667 28.330667 0 1 1 0 56.576H184.223573a84.906667 84.906667 0 0 0-84.992 84.821334v655.872c0 46.933333 38.058667 84.821333 84.992 84.821333H839.668907c46.933333 0 84.992-37.973333 84.992-84.821333V484.010667a28.330667 28.330667 0 0 1 56.576 0v396.544a141.653333 141.653333 0 0 1-141.568 141.397333z" fill="#202020" p-id="4973"></path><path d="M511.988907 680.618667h-81.066667a46.933333 46.933333 0 0 1-46.933333-46.933334v-81.066666c0-20.906667 8.106667-40.618667 22.954666-55.296l391.168-391.082667A77.568 77.568 0 0 1 853.32224 83.285333c20.906667 0 40.533333 8.106667 55.296 22.954667l49.92 49.92a78.336 78.336 0 0 1 0 110.506667L567.199573 657.834667a77.738667 77.738667 0 0 1-55.210666 22.784z m-75.946667-52.053334h75.946667a25.941333 25.941333 0 0 0 18.432-7.68L921.588907 229.802667a26.197333 26.197333 0 0 0 0-36.864l-49.749334-49.92a25.941333 25.941333 0 0 0-18.517333-7.68 25.941333 25.941333 0 0 0-18.432 7.68L443.807573 534.101333a25.941333 25.941333 0 0 0-7.68 18.432v75.946667z" fill="#202020" p-id="4974"></path></svg>