<?xml version="1.0" standalone="no"?><!DOCTYPE svg PUBLIC "-//W3C//DTD SVG 1.1//EN" "http://www.w3.org/Graphics/SVG/1.1/DTD/svg11.dtd"><svg t="1667295207261" class="icon" viewBox="0 0 1024 1024" version="1.1" xmlns="http://www.w3.org/2000/svg" p-id="1960" xmlns:xlink="http://www.w3.org/1999/xlink" width="200" height="200"><path d="M904.14 180.99H120.27c-16.57 0-30-13.43-30-30s13.43-30 30-30h783.86c16.57 0 30 13.43 30 30s-13.42 30-29.99 30zM904.14 421.55H440.13c-16.57 0-30-13.43-30-30s13.43-30 30-30h464.01c16.57 0 30 13.43 30 30s-13.43 30-30 30zM904.14 662.12H440.13c-16.57 0-30-13.43-30-30s13.43-30 30-30h464.01c16.57 0 30 13.43 30 30s-13.43 30-30 30zM904.14 902.68H120.27c-16.57 0-30-13.43-30-30s13.43-30 30-30h783.86c16.57 0 30 13.43 30 30s-13.42 30-29.99 30zM306.79 505.58L127.46 402.05v207.06z" p-id="1961" fill="#707070"></path></svg>