<?xml version="1.0" standalone="no"?><!DOCTYPE svg PUBLIC "-//W3C//DTD SVG 1.1//EN" "http://www.w3.org/Graphics/SVG/1.1/DTD/svg11.dtd"><svg t="1667270039361" class="icon" viewBox="0 0 1024 1024" version="1.1" xmlns="http://www.w3.org/2000/svg" p-id="1353" xmlns:xlink="http://www.w3.org/1999/xlink" width="200" height="200"><path d="M514.260225 0.511744h97.913709c14.669998 0 29.425287 9.808429 29.425288 29.510578v39.404298c4.861569 0 9.723138 4.861569 19.616858 4.861569 24.393137 9.89372 48.871564 19.702149 73.349992 34.457438l29.425287-29.510578a29.681159 29.681159 0 0 1 39.233716 0l141.923705 142.691321a30.022322 30.022322 0 0 1 0 39.404298l-29.339996 29.510578c0 4.94686 4.861569 9.808429 9.808429 14.755289 9.808429 24.563718 19.616858 49.212727 29.339996 78.723305h39.233717c14.669998 0 29.339997 9.808429 29.339997 29.510578v196.850908c0 14.755289-14.669998 29.510578-29.339997 29.510578h-39.233717c-4.861569 4.94686-4.861569 9.808429-4.861569 19.616858-9.808429 24.7343-24.478427 49.298018-34.286856 73.861736l29.339996 29.510578a30.022322 30.022322 0 0 1 0 39.404298l-142.008995 142.691321a29.681159 29.681159 0 0 1-39.148426 0l-29.425287-29.510578c-4.861569 4.861569-9.723138 4.861569-14.669999 9.808429-24.478427 9.89372-53.818424 19.616858-78.296851 29.510578v39.404298c0 19.616858-14.755289 29.510578-29.425288 29.510578H514.345515v-59.021156h68.573713v-29.510578c0-14.84058 9.723138-29.595869 24.478428-29.595869 29.339997-9.808429 58.765284-19.616858 83.243711-34.457438 4.861569 0 9.808429-4.861569 14.669999-4.861569 4.861569-4.94686 9.808429-9.89372 14.669998-9.89372 14.669998-9.808429 29.425287-9.808429 39.233716 4.94686l24.478428 24.649009 97.91371-103.372314-24.478428-24.563718a30.363485 30.363485 0 0 1-4.94686-34.457438c19.616858-24.649009 29.425287-54.159587 39.233717-83.670165 4.861569-4.94686 4.861569-9.808429 4.861569-14.755289 4.94686-9.89372 4.94686-14.755289 4.94686-19.616858 4.861569-14.84058 14.669998-24.7343 29.339997-24.7343h34.286856V443.426287h-34.286856c-14.669998 0-24.478427-9.808429-29.339997-24.563718a313.869732 313.869732 0 0 0-29.425287-88.617025c0-4.861569-4.861569-9.808429-9.80843-14.755289 0-4.861569-4.861569-9.808429-4.861569-14.755289H852.09664a30.448776 30.448776 0 0 1 4.94686-34.457438l24.478427-24.563718-97.91371-103.372314-24.478427 24.649009c-9.808429 9.808429-24.563718 14.755289-34.286857 4.94686a433.276695 433.276695 0 0 0-83.243711-39.404298c-4.94686 0-9.808429 0-19.616859-4.94686-4.94686 0-9.808429 0-14.669998-4.861569-14.755289 0-24.478427-14.84058-24.478427-29.595869V54.671331h-68.573713V0.511744z m0 836.531068c88.105281 0 166.487423-39.404298 225.167416-98.425454C798.363506 684.457771 832.650363 600.787606 832.650363 512.255872c0-88.531734-34.286857-172.28719-93.052141-231.308346-58.850575-54.074296-137.147426-93.478594-225.252707-93.478594v59.106447c73.435282 0 137.062136 29.510578 186.104281 78.723305 48.956855 49.212727 78.296852 113.180743 78.296852 186.957188 0 73.776445-29.339997 137.744461-78.296852 186.957188-49.042146 49.212727-112.668999 78.723305-186.104281 78.723305v59.106447zM411.399655 0.511744h102.86057v54.159587h-73.520573v34.372147c0 14.84058-4.861569 29.595869-19.616859 29.595869-29.339997 9.808429-58.679993 19.616858-88.10528 34.372147-4.861569 0-9.723138 4.94686-14.669999 4.94686-4.861569 4.94686-9.808429 4.94686-14.669998 9.89372-14.669998 9.808429-29.425287 4.861569-39.233717-4.94686l-24.478427-24.649009-97.91371 103.372314 24.478428 24.563718a30.448776 30.448776 0 0 1 4.94686 34.457438 437.370648 437.370648 0 0 0-39.233717 83.670165c0 4.94686-4.861569 9.808429-4.861569 14.755289 0 4.94686-4.94686 14.755289-4.94686 19.616858-4.861569 14.84058-14.669998 24.7343-29.339997 24.7343H58.807951v137.744461h34.286856c14.669998 0 24.478427 9.808429 29.339997 24.563718 4.94686 29.510578 19.616858 59.106447 29.425287 88.617025 4.861569 4.861569 4.861569 9.808429 9.808429 14.755289 4.861569 4.861569 4.861569 9.808429 9.80843 9.808429v4.94686a30.448776 30.448776 0 0 1-4.94686 34.457438l-24.478428 24.563718 97.91371 103.372314 24.563718-24.649009c9.723138-9.808429 24.478427-14.755289 39.148426-4.94686 24.478427 14.84058 53.818424 29.595869 83.243711 39.404298 4.861569 0 9.808429 0 14.669999 4.94686 4.94686 0 9.808429 0 19.616858 4.861569 9.808429 0 19.616858 14.84058 19.616858 24.649009v34.457438h73.349992V1024H411.484946c-14.669998 0-24.478427-9.808429-24.478428-29.510578v-39.404298c-9.808429 0-14.669998-4.861569-19.616858-4.861569-24.478427-9.89372-53.818424-19.702149-73.435283-34.457438l-29.339996 29.510578a36.674996 36.674996 0 0 1-44.095286 0L83.286378 802.585374a23.028486 23.028486 0 0 1 0-39.404298l29.425288-29.510578c-4.94686-4.861569-9.808429-9.808429-9.80843-14.755289A217.917708 217.917708 0 0 1 73.392658 640.191904H29.382663C14.712665 640.191904 0.042667 625.436615 0.042667 610.681326V413.830418c0-19.616858 14.669998-29.510578 29.339996-29.510578h44.095286c0-4.94686 0-14.755289 4.94686-19.616858 9.808429-24.7343 19.616858-49.298018 34.286857-73.861736l-29.425288-29.510578a23.028486 23.028486 0 0 1 0-39.404298L220.433804 79.235049a36.589705 36.589705 0 0 1 44.095286 0l29.339997 29.510578c4.861569-4.861569 9.808429-4.861569 14.669998-9.808429 24.478427-9.89372 48.956855-19.616858 78.382142-29.510578V30.022322c0-19.616858 9.808429-29.510578 24.478428-29.510578z m102.86057 186.957188c-88.190571 0-171.434283 39.404298-230.199567 93.478594C225.295374 340.053973 191.093808 423.724138 191.093808 512.255872c0 88.531734 34.201566 172.28719 92.96685 226.361486 58.850575 59.021156 142.008996 98.425454 230.199567 98.425454v-59.106447c-73.520573 0-142.008996-29.510578-186.104282-78.723305A260.818924 260.818924 0 0 1 249.773801 512.255872c0-73.776445 29.425287-137.744461 78.382142-186.957188 44.095286-49.212727 112.583708-78.723305 186.104282-78.723305v-59.106447z" fill="#ffffff" p-id="1354"></path></svg>