<?xml version="1.0" standalone="no"?><!DOCTYPE svg PUBLIC "-//W3C//DTD SVG 1.1//EN" "http://www.w3.org/Graphics/SVG/1.1/DTD/svg11.dtd"><svg t="1667224473462" class="icon" viewBox="0 0 1024 1024" version="1.1" xmlns="http://www.w3.org/2000/svg" p-id="2951" xmlns:xlink="http://www.w3.org/1999/xlink" width="200" height="200"><path d="M507.510154 534.370462c-123.273846 0-223.310769-102.084923-223.310769-227.800616C284.199385 180.854154 384.236308 78.769231 507.510154 78.769231s223.310769 102.084923 223.310769 227.800615c0 125.715692-100.036923 227.800615-223.310769 227.800616z m0-419.131077c-103.581538 0-187.549538 85.622154-187.549539 191.330461 0 105.708308 83.968 191.330462 187.549539 191.330462 103.660308 0 187.628308-85.622154 187.628308-191.409231 0-105.629538-83.968-191.251692-187.628308-191.251692z" fill="#727272" p-id="2952"></path><path d="M945.230769 954.131692H78.769231v-18.116923C78.769231 695.296 273.723077 498.609231 512 498.609231S945.230769 695.374769 945.230769 935.936v18.195692z m-830.385231-36.391384h794.308924C900.096 704.512 724.992 535.079385 512 535.079385c-212.992 0-388.096 169.432615-397.154462 382.660923z" fill="#727272" p-id="2953"></path><path d="M519.089231 855.906462l-100.824616-69.238154 53.011693-207.635693H561.624615l44.268308 207.635693-86.724923 69.238154z m-60.179693-85.622154l58.368 40.093538 47.812924-38.281846-33.634462-156.672H497.821538L458.909538 770.363077z" fill="#727272" p-id="2954"></path></svg>