<?xml version="1.0" standalone="no"?><!DOCTYPE svg PUBLIC "-//W3C//DTD SVG 1.1//EN" "http://www.w3.org/Graphics/SVG/1.1/DTD/svg11.dtd"><svg t="1667295962003" class="icon" viewBox="0 0 1024 1024" version="1.1" xmlns="http://www.w3.org/2000/svg" p-id="5345" xmlns:xlink="http://www.w3.org/1999/xlink" width="200" height="200"><path d="M128 96h449.088c13.2544 0 24 10.7456 24 24 0 13.088-10.4752 23.728-23.4976 23.9952l-0.5024 0.0048H128c-8.688 0-15.7568 6.9232-15.9936 15.552L112 160v528c0 8.688 6.9232 15.7568 15.552 15.9936L128 704h768c8.688 0 15.7568-6.9232 15.9936-15.552L912 688V449.4464c0-13.2544 10.7456-24 24-24 13.088 0 23.728 10.4752 23.9952 23.4976l0.0048 0.5024V688c0 34.992-28.0832 63.4256-62.9424 63.992L896 752H536v128h400c13.2544 0 24 10.7456 24 24 0 13.2544-10.7456 24-24 24H88c-13.2544 0-24-10.7456-24-24 0-13.2544 10.7456-24 24-24l400-0.0016V752H128c-34.992 0-63.4256-28.0832-63.992-62.9424L64 688V160c0-34.992 28.0832-63.4256 62.9424-63.992L128 96h449.088z m792.7184 8.0816c9.3728 9.3728 9.3728 24.568 0 33.9408L547.3664 511.376c-9.3728 9.3728-24.5696 9.3728-33.9408 0-9.3728-9.3712-9.3728-24.568 0-33.9408L886.7776 104.0816c9.3728-9.3728 24.568-9.3728 33.9408 0z" fill="#ffffff" p-id="5346"></path></svg>