<?xml version="1.0" standalone="no"?><!DOCTYPE svg PUBLIC "-//W3C//DTD SVG 1.1//EN" "http://www.w3.org/Graphics/SVG/1.1/DTD/svg11.dtd"><svg t="1667224569317" class="icon" viewBox="0 0 1024 1024" version="1.1" xmlns="http://www.w3.org/2000/svg" p-id="5108" xmlns:xlink="http://www.w3.org/1999/xlink" width="200" height="200"><path d="M918.130717 144.706517H105.081597c-15.753713 0-26.3087-10.476219-26.3087-26.3087 0-15.753713 10.554988-26.3087 26.3087-26.308701h813.04912c15.753713 0 26.3087 10.554988 26.308701 26.308701s-10.554988 26.3087-26.308701 26.3087z" fill="#202020" p-id="5109"></path><path d="M810.217784 147.30588H212.99453L276.08815 28.995496A60.651794 60.651794 0 0 1 328.705551 0.008665h363.123081c23.630569 0 44.740545 10.554988 52.617401 28.908063l65.771751 118.46792zM302.475619 94.846016h421.017976L702.38362 52.626065s-2.678131-2.599363-7.876857-2.599362h-363.123081c-5.277494 0-7.876856 2.599363-7.876856 2.599362l-21.109976 42.141182z m494.666584 891.975222H228.748243c-26.3087 0-47.339907-21.109975-47.339907-44.740545L131.390297 247.341956c0-13.15435 2.599363-26.3087 13.154351-36.863688 7.876856-10.476219 21.031207-15.753713 36.863688-15.753713h665.673136a51.987252 51.987252 0 0 1 36.863688 15.753713c7.876856 10.554988 13.15435 23.709338 13.154351 36.863688l-47.339907 691.981837c-5.277494 26.3087-26.3087 47.418676-52.69617 47.418676z m-565.715829-52.617401h560.517103l47.261139-684.183749H184.086467l47.339907 684.183749z" fill="#202020" p-id="5110"></path><path d="M612.902531 884.10703h-2.599363c-13.15435-2.599363-26.3087-13.15435-23.630569-28.986832l49.93927-507.820934a28.592989 28.592989 0 0 1 28.908063-23.630569c13.15435 2.599363 26.3087 13.15435 23.630569 28.908063l-49.93927 507.820934c0 13.15435-10.554988 23.630569-26.3087 23.630569z m-202.592747 0c-13.15435 0-23.630569-10.554988-26.308701-23.630569L333.983045 352.49799c-2.599363-13.15435 7.876856-26.3087 23.630569-28.908063 15.832481-2.678131 26.387469 7.876856 28.986832 23.630569l50.018038 507.820934c2.599363 13.15435-7.876856 26.387469-23.630569 28.986831h-2.678131z" fill="#202020" p-id="5111"></path></svg>